# xmcd
#
# Track frame offsets: 
#        150
#        22572
#        32731
#        49597
#        63199
#        76507
#        88433
#        102560
#        112156
#        129637
#        140603
#        154295
#        164902
#        180437
#
# Disc length: 2675 seconds
#
# Revision: 0
# Processed by: cddbd v1.5.2PL0 Copyright (c) Steve Scherf et al.
# Submitted via: ExactAudioCopy v0.99pb5
#
DISCID=b90a710e
DTITLE=Berusky - Ladybirds
DYEAR=2009
DGENRE=Country
TTITLE0=Travelin Soldier
TTITLE1=I do'nt know
TTITLE2=Torn
TTITLE3=Shall I Go
TTITLE4=Digi Ligi
TTITLE5=If You Can't Give Me Love
TTITLE6=Jet Plane
TTITLE7=Spring
TTITLE8=Long Time Gone
TTITLE9=Cotton Eye Joe
TTITLE10=Jambalaya I
TTITLE11=Jambalaya II
TTITLE12=Hrnicek
TTITLE13=Kez slunce sviti nam
EXTD=
EXTT0=
EXTT1=
EXTT2=
EXTT3=
EXTT4=
EXTT5=
EXTT6=
EXTT7=
EXTT8=
EXTT9=
EXTT10=
EXTT11=
EXTT12=
EXTT13=
PLAYORDER=
